<svg id="Payment_Option_3" data-name="Payment Option 3" xmlns="http://www.w3.org/2000/svg" viewBox="0 0 130.587 31.895">
  <defs>
    <style>
      .cls-1 {
        fill: #2699fb;
      }

      .cls-2 {
        fill: #bce0fd;
      }

      .cls-3 {
        fill: #7fc4fd;
      }
    </style>
  </defs>
  <path id="XMLID_15_" class="cls-1" d="M139.265,30.875c-.385,2.6-2.367,2.6-4.29,2.6H133.88l.769-4.852a.6.6,0,0,1,.592-.5h.5c1.3,0,2.545,0,3.166.74A2.368,2.368,0,0,1,139.265,30.875Zm-.828-6.775h-7.219a1.017,1.017,0,0,0-1.006.858L127.282,43.48a.6.6,0,0,0,.592.681h3.462a1.017,1.017,0,0,0,1.006-.858l.8-5a1.01,1.01,0,0,1,.976-.858h2.278c4.764,0,7.515-2.308,8.225-6.864A5.679,5.679,0,0,0,143.7,25.9C142.667,24.751,140.833,24.1,138.436,24.1Z" transform="translate(-89.606 -16.97)"/>
  <path id="XMLID_12_" class="cls-1" d="M194.282,52.642a3.848,3.848,0,0,1-3.905,3.314,2.945,2.945,0,0,1-2.337-.947,2.906,2.906,0,0,1-.533-2.426,3.89,3.89,0,0,1,3.876-3.343,2.923,2.923,0,0,1,2.308.947A3.043,3.043,0,0,1,194.282,52.642Zm4.823-6.716h-3.462a.58.58,0,0,0-.592.5l-.148.976-.237-.355c-.74-1.095-2.426-1.45-4.083-1.45a7.951,7.951,0,0,0-7.722,6.953,6.585,6.585,0,0,0,1.3,5.326,5.425,5.425,0,0,0,4.349,1.746,6.643,6.643,0,0,0,4.793-1.982l-.148.947a.624.624,0,0,0,.592.71h3.107a1.017,1.017,0,0,0,1.006-.858l1.864-11.835A.639.639,0,0,0,199.1,45.925Z" transform="translate(-128.675 -32.108)"/>
  <path id="XMLID_11_" class="cls-1" d="M261.874,46.7h-3.462a1.024,1.024,0,0,0-.828.444l-4.793,7.042-2.042-6.775a1.021,1.021,0,0,0-.976-.71h-3.4a.6.6,0,0,0-.562.8l3.817,11.243-3.61,5.089a.6.6,0,0,0,.5.947h3.462a.952.952,0,0,0,.828-.444l11.569-16.687A.6.6,0,0,0,261.874,46.7Z" transform="translate(-173.041 -32.883)"/>
  <path id="XMLID_8_" class="cls-1" d="M313.435,30.875c-.385,2.6-2.367,2.6-4.29,2.6H308.05l.769-4.852a.6.6,0,0,1,.592-.5h.5c1.3,0,2.544,0,3.166.74A2.368,2.368,0,0,1,313.435,30.875Zm-.828-6.775h-7.219a.965.965,0,0,0-.976.858L301.482,43.48a.6.6,0,0,0,.592.681h3.7a.653.653,0,0,0,.68-.592l.828-5.237a1.01,1.01,0,0,1,.976-.858h2.278c4.764,0,7.515-2.308,8.225-6.864a5.679,5.679,0,0,0-.917-4.675C316.867,24.751,315.033,24.1,312.607,24.1Z" transform="translate(-212.265 -16.97)"/>
  <path id="XMLID_5_" class="cls-1" d="M368.382,52.642a3.848,3.848,0,0,1-3.906,3.314,2.945,2.945,0,0,1-2.337-.947,2.906,2.906,0,0,1-.533-2.426,3.887,3.887,0,0,1,3.876-3.314,2.749,2.749,0,0,1,2.9,3.373Zm4.823-6.716h-3.462a.58.58,0,0,0-.592.5L369,47.4l-.237-.355c-.74-1.095-2.426-1.45-4.083-1.45a7.951,7.951,0,0,0-7.722,6.953,6.585,6.585,0,0,0,1.3,5.326,5.425,5.425,0,0,0,4.349,1.746,6.643,6.643,0,0,0,4.793-1.982l-.148.947a.624.624,0,0,0,.592.71h3.107a.965.965,0,0,0,.976-.858L373.8,46.606A.584.584,0,0,0,373.2,45.925Z" transform="translate(-251.264 -32.108)"/>
  <path id="XMLID_4_" class="cls-1" d="M418.841,24.533l-2.959,18.877a.6.6,0,0,0,.592.681h2.988a1.017,1.017,0,0,0,1.006-.858L423.4,24.71a.624.624,0,0,0-.592-.71h-3.343A.639.639,0,0,0,418.841,24.533Z" transform="translate(-292.817 -16.899)"/>
  <path id="XMLID_3_" class="cls-2" d="M39.965,27.4c-.03.178-.059.385-.089.592-1.331,6.687-5.8,8.994-11.509,8.994h-2.9a1.4,1.4,0,0,0-1.391,1.183L22.6,47.608l-.414,2.663a.747.747,0,0,0,.74.858h5.119a1.215,1.215,0,0,0,1.213-1.036l.059-.266.976-6.154.059-.325a1.237,1.237,0,0,1,1.213-1.036h.769c5,0,8.906-2.042,10.06-7.9.473-2.456.237-4.5-1.036-5.947A4.685,4.685,0,0,0,39.965,27.4Z" transform="translate(-15.603 -19.293)"/>
  <path id="XMLID_2_" class="cls-3" d="M43.127,24.444a4.73,4.73,0,0,0-.621-.148,5.017,5.017,0,0,0-.651-.118A17.3,17.3,0,0,0,39.281,24H31.529a1.083,1.083,0,0,0-.533.118,1.219,1.219,0,0,0-.681.917L28.659,35.509l-.059.3a1.425,1.425,0,0,1,1.391-1.183h2.9c5.71,0,10.178-2.308,11.48-9.024.03-.207.059-.385.089-.592a5.748,5.748,0,0,0-1.065-.444A1.051,1.051,0,0,0,43.127,24.444Z" transform="translate(-20.126 -16.899)"/>
  <path id="XMLID_1_" class="cls-1" d="M10.12,8.136a1.219,1.219,0,0,1,.681-.917,1.16,1.16,0,0,1,.533-.118h7.752a17.589,17.589,0,0,1,2.574.178c.237.03.444.089.651.118.207.059.414.089.621.148.089.03.207.059.3.089a5.747,5.747,0,0,1,1.065.444c.385-2.485,0-4.172-1.331-5.681C21.481.71,18.818,0,15.416,0H5.5A1.379,1.379,0,0,0,4.114,1.183L-.029,27.368a.849.849,0,0,0,.828.976H6.924L8.463,18.61Z" transform="translate(0.041 0)"/>
</svg>
