<?xml version="1.0" standalone="no"?>
<!DOCTYPE svg PUBLIC "-//W3C//DTD SVG 20010904//EN"
 "http://www.w3.org/TR/2001/REC-SVG-20010904/DTD/svg10.dtd">
<svg version="1.0" xmlns="http://www.w3.org/2000/svg"
 width="846.000000pt" height="846.000000pt" viewBox="0 0 846.000000 846.000000"
 preserveAspectRatio="xMidYMid meet">
<metadata>
Created by potrace 1.11, written by Peter Selinger 2001-2013
</metadata>
<g transform="translate(0.000000,846.000000) scale(0.100000,-0.100000)"
fill="#000000" stroke="none">
<path d="M3799 8049 c-101 -10 -146 -30 -156 -66 -9 -31 -11 -311 -3 -498 2
-66 1 -144 -4 -172 l-8 -53 36 0 c61 0 48 -31 -57 -139 -92 -95 -152 -174
-198 -261 l-24 -45 -3 -3064 -2 -3064 30 -47 c35 -54 113 -131 180 -177 206
-140 552 -213 871 -184 212 19 325 48 477 123 94 46 214 150 256 223 l26 44 7
3044 c6 2886 5 3047 -11 3098 -25 78 -109 198 -220 316 -53 57 -96 110 -96
118 0 11 11 15 41 15 l41 0 -9 33 c-4 17 -6 113 -3 212 7 238 5 421 -4 467 -9
49 -41 66 -149 78 -98 12 -910 11 -1018 -1z"/>
</g>
</svg>
